Coordinates
version=1
nRows=8
nColumns=63
inDegrees=yes

Units are S.I. units (second, meters, Newtons, ...)
If the header above contains a line with 'inDegrees', this indicates whether rotational values are in degrees (yes) or radians (no).

endheader
time	pelvis_tilt	pelvis_list	pelvis_rotation	pelvis_tx	pelvis_ty	pelvis_tz	hip_flexion_r	hip_adduction_r	hip_rotation_r	knee_angle_r	knee_angle_r_beta	ankle_angle_r	subtalar_angle_r	mtp_angle_r	hip_flexion_l	hip_adduction_l	hip_rotation_l	knee_angle_l	knee_angle_l_beta	ankle_angle_l	subtalar_angle_l	mtp_angle_l	L5_S1_Flex_Ext	L5_S1_Lat_Bending	L5_S1_axial_rotation	L4_L5_Flex_Ext	L4_L5_Lat_Bending	L4_L5_axial_rotation	L3_L4_Flex_Ext	L3_L4_Lat_Bending	L3_L4_axial_rotation	L2_L3_Flex_Ext	L2_L3_Lat_Bending	L2_L3_axial_rotation	L1_L2_Flex_Ext	L1_L2_Lat_Bending	L1_L2_axial_rotation	L1_T12_Flex_Ext	L1_T12_Lat_Bending	L1_T12_axial_rotation	Abs_r3	Abs_r2	Abs_r1	Abs_t1	Abs_t2	neck_flexion	neck_bending	neck_rotation	arm_flex_r	arm_add_r	arm_rot_r	elbow_flex_r	pro_sup_r	wrist_flex_r	wrist_dev_r	arm_flex_l	arm_add_l	arm_rot_l	elbow_flex_l	pro_sup_l	wrist_flex_l	wrist_dev_l
      3.03333333	      0.03963155	     -4.78567553	     90.98652572	      0.27412248	      0.94458001	      0.28276798	      1.57801269	      1.17863800	    -10.70077537	      1.25825525	      0.02196070	     11.46745247	      8.52194102	      0.00000000	      2.03235792	      1.01047707	      4.28312850	      0.29683354	      0.00518072	     10.24224116	    -16.89654473	      0.00000000	     -0.21804613	     -0.04247743	      1.24609211	     -0.40493346	     -0.05649498	      1.32397287	     -0.35822798	     -0.10327962	      1.32397287	     -0.24920492	     -0.10327962	      1.09033060	     -0.20247763	     -0.08661997	      1.01244984	     -0.12459156	     -0.06579754	      0.93456909	     -1.55748167	     -0.48051317	      6.93039051	      0.00000000	      0.00000000	     19.38771094	      0.29894411	      0.24255947	      4.09474227	     -9.68226408	     51.80959646	     29.47216163	     62.03512352	     -2.02087997	      6.99570539	     16.72744730	    -10.03003727	     71.67165864	     35.65277189	     87.86443407	     -7.34025951	      1.94762763
      3.05000000	      0.34671295	     -4.99427363	     91.23973911	      0.27255373	      0.94368959	      0.28488409	      2.04464157	      1.38113724	    -11.36345549	      1.52542901	      0.02662376	     11.51359596	      8.70723591	      0.00000000	      2.37281864	      0.77575721	      4.65992055	      0.28114758	      0.00490695	     10.58803461	    -16.99639000	      0.00000000	     -0.22325070	      0.00139090	      1.10336191	     -0.41459887	      0.00184990	      1.17232203	     -0.36677857	      0.00338184	      1.17232203	     -0.25515322	      0.00338184	      0.96544167	     -0.20731060	      0.00283633	      0.89648155	     -0.12756545	      0.00215451	      0.82752143	     -1.59465741	      0.01573417	      6.13656795	      0.00000000	      0.00000000	     19.94081191	      0.48039643	      0.68014895	      6.00143908	     -8.41008836	     59.90257432	     27.35051540	     54.59454479	     -2.17184305	      4.73783084	     15.64833192	     -8.80810700	     68.66289523	     35.07540230	     84.93722339	     -6.94667036	     -0.02843919
      3.06666667	      0.67206588	     -5.16644897	     91.39619835	      0.27076467	      0.94290153	      0.28710633	      2.48547672	      1.57845478	    -12.09463671	      1.81255451	      0.03163504	     11.55295319	      9.13017662	      0.00000000	      2.69079101	      0.54494902	      4.89953905	      0.27825177	      0.00485641	     10.99900134	    -17.03223968	      0.00000000	     -0.23322082	      0.05491966	      1.02098062	     -0.43311439	      0.07304315	      1.08479191	     -0.38315849	      0.13353166	      1.08479191	     -0.26654808	      0.13353166	      0.89335804	     -0.21656885	      0.11199217	      0.82954675	     -0.13326238	      0.08507055	      0.76573546	     -1.66587301	      0.62126218	      5.67838791	      0.00000000	      0.00000000	     20.44924420	      0.43116659	      1.09785108	      7.68166361	     -7.11818815	     67.52704556	     25.77468972	     45.94149497	     -1.95401796	      2.11163937	     15.56287492	     -7.46102096	     69.83683259	     34.22158423	     75.59690141	     -7.28999414	     -3.08207239
      3.08333333	      0.97606479	     -5.37518570	     91.47753811	      0.26895527	      0.94218640	      0.28915652	      2.96862200	      1.73491187	    -12.98036448	      2.13766497	      0.03730929	     11.56687960	      9.83762920	      0.00000000	      3.04511291	      0.35130529	      5.08938997	      0.28492347	      0.00497285	     11.32576602	    -17.17969764	      0.00000000	     -0.23709523	      0.10715778	      0.99970512	     -0.44030955	      0.14251985	      1.06218669	     -0.38952375	      0.26054344	      1.06218669	     -0.27097614	      0.26054344	      0.87474198	     -0.22016663	      0.21851615	      0.81226041	     -0.13547621	      0.16598741	      0.74977884	     -1.69354751	      1.21219028	      5.56005996	      0.00000000	      0.00000000	     21.05345891	      0.22267260	      1.34098045	      8.69800917	     -5.99297354	     71.42737534	     25.14620138	     39.34634459	     -1.23972765	      0.14192024	     16.18781688	     -6.06456262	     73.66782845	     33.56741860	     63.02296597	     -7.49947106	     -6.51255132
      3.10000000	      1.12360730	     -5.63621521	     91.48362953	      0.26753343	      0.94165764	      0.29090221	      3.51347404	      1.72464373	    -14.00793596	      2.51504161	      0.04389576	     11.56272367	     10.85360246	      0.00000000	      3.44299524	      0.30721185	      5.04505429	      0.30148546	      0.00526191	     11.60501151	    -17.08856284	      0.00000000	     -0.23042882	      0.13233319	      1.00101382	     -0.42792936	      0.17600314	      1.06357719	     -0.37857151	      0.32175491	      1.06357719	     -0.26335710	      0.32175491	      0.87588710	     -0.21397620	      0.26985383	      0.81332373	     -0.13166703	      0.20498411	      0.75076037	     -1.64593002	      1.49697947	      5.56733858	      0.00000000	      0.00000000	     21.70131566	      0.06164578	      1.29865233	      9.42644379	     -5.13139948	     72.92970330	     25.42501639	     32.97912862	     -0.35125755	     -1.16680209	     16.79764488	     -4.75960313	     76.46085798	     33.44066681	     53.30323228	     -7.04752163	     -8.81090214
      3.11666667	      1.01338844	     -5.99447833	     91.46821365	      0.26654902	      0.94132289	      0.29236940	      4.05549871	      1.51019269	    -14.21255280	      2.67710825	      0.04672435	     11.15032769	     10.77583737	      0.00000000	      3.93834610	      0.52290458	      4.82019804	      0.33071796	      0.00577212	     11.51967591	    -16.98369579	      0.00000000	     -0.21183545	      0.11686457	      0.97788123	     -0.39339961	      0.15542987	      1.03899881	     -0.34802445	      0.28414450	      1.03899881	     -0.24210673	      0.28414450	      0.85564608	     -0.19671040	      0.23831022	      0.79452850	     -0.12104277	      0.18102321	      0.73341092	     -1.51311941	      1.32199534	      5.43868205	      0.00000000	      0.00000000	     22.73363996	      0.15557544	      1.17482536	      9.85755963	     -4.52104488	     71.39092600	     26.42784713	     31.67051888	      0.08468493	     -1.88346106	     16.84939523	     -3.63827736	     75.57476436	     33.69920578	     52.15504500	     -6.88094624	     -8.79807838
      3.13333333	      0.86286396	     -6.27195139	     91.31752112	      0.26653920	      0.94119402	      0.29288467	      4.54333656	      1.24901478	    -15.48351361	      3.06862506	      0.05355761	     11.41267210	     12.48132923	      0.00000000	      4.26531787	      0.70281227	      4.64582143	      0.36938629	      0.00644701	     11.36106724	    -17.07537796	      0.00000000	     -0.17100868	      0.08028498	      1.05707563	     -0.31758023	      0.10677903	      1.12314286	     -0.28095017	      0.19520490	      1.12314286	     -0.19544582	      0.19520490	      0.92494118	     -0.15879866	      0.16371713	      0.85887395	     -0.09771436	      0.12436144	      0.79280672	     -1.22149793	      0.90819977	      5.87913754	      0.00000000	      0.00000000	     22.92296446	      0.03573506	     -0.16848207	      9.60875764	     -4.11666547	     67.29686444	     28.29927206	     25.40032029	      0.39921633	     -0.05894106	     17.98916391	     -2.64220405	     79.13440540	     34.00147262	     45.41259638	     -6.53933468	     -8.57790765
      3.15000000	      0.55163597	     -6.45874059	     91.11506456	      0.26679079	      0.94135254	      0.29302904	      4.73481771	      0.93290477	    -15.34122094	      3.03485335	      0.05296818	     11.19887761	     12.44386790	      0.00000000	      4.46502738	      1.03467172	      4.20603965	      0.41746255	      0.00728610	     11.10450492	    -17.00887876	      0.00000000	     -0.14213538	      0.02276955	      1.10277309	     -0.26395962	      0.03028351	      1.17169641	     -0.23351422	      0.05536189	      1.17169641	     -0.16244653	      0.05536189	      0.96492645	     -0.13198691	      0.04643168	      0.89600314	     -0.08121616	      0.03527004	      0.82707982	     -1.01525881	      0.25757375	      6.13329309	      0.00000000	      0.00000000	     23.28869526	      0.25495736	     -1.19372794	      9.58161586	     -3.80848918	     64.15654264	     29.91351587	     23.48055193	     -0.30190374	      1.26552061	     18.68877533	     -1.77607126	     80.20930779	     34.12833496	     46.05072530	     -6.34811494	     -6.04602710
